<?xml version="1.0" encoding="UTF-8"?>
<svg xmlns="http://www.w3.org/2000/svg" viewBox="0 0 512 512">
  <defs>
    <style>
      .cls-1 {
        fill: #1a2fee;
      }

      .cls-2 {
        fill: #fff;
      }
    </style>
  </defs>
  <g id="BG">
    <rect class="cls-1" width="512" height="512"/>
  </g>
  <g id="Kurzzeichen">
    <path class="cls-2" d="M198.54,285.35l-.12,4.34c-.43,14.97-1.71,26.44-4.03,35.82-13.83,4.16-30.34,6.26-49.13,6.26s-35.92-2.26-49.83-6.72c-5.28-14.01-8.18-32.64-8.84-56.78h158.73l.04-4.42c.39-42.16-15.28-70.36-46.6-83.86-9.57-24.09-27.7-36.3-53.91-36.3-29.35,0-47.68,11.67-57.51,36.68-30.92,12.93-46.6,38.43-46.6,75.84s16.12,63.46,47.92,75.93c10.63,24.34,29.16,36.19,56.59,36.19,30.11,0,48.1-11.4,56.4-35.82,23.93-8.9,38.71-23.29,42.8-41.71l1.21-5.43h-47.13ZM144.86,179.83c18.97,0,34.36,2.29,46.96,6.99,4.49,12.18,7.01,27.45,7.68,46.51h-112.41c.95-19.74,3.28-34.54,7.24-46.06,14.25-4.93,31.23-7.43,50.53-7.43ZM445.41,174.96c-17.19-20.45-40.96-31.26-68.76-31.26s-48.97,9.79-64.44,28.42v-23.54h-39.53v290.09h40.75v-95.56c14.69,16.51,35.12,25.19,59.55,25.19,57.86,0,98.27-46.77,98.27-113.73,0-31.97-8.94-59.5-25.85-79.62ZM429.29,256.2c0,48.78-23.13,79.08-60.37,79.08s-58.74-30.61-58.74-79.89,21.96-78.26,58.74-78.26,60.37,30.3,60.37,79.08Z"/>
  </g>
</svg>